<svg width="120" height="50" viewBox="0 0 120 50" fill="none" xmlns="http://www.w3.org/2000/svg">
<path fill-rule="evenodd" clip-rule="evenodd" d="M51.8037 49.8826C49.3976 49.8956 47.9671 49.2824 47.9671 48.1872V45.964L50.0012 45.9558L50.01 48.1483C50.01 48.7546 50.6478 49.0769 51.8037 49.0769C52.9918 49.068 53.6002 48.7457 53.6002 48.1346V45.951H55.6424V48.1606C55.6424 49.253 54.2229 49.8696 51.8037 49.8826ZM113.316 49.7215C112.308 49.729 111.361 49.6081 110.494 49.3562V48.4992C111.513 48.7928 112.358 48.9745 113.26 48.9745C114.062 48.9745 114.486 48.8461 114.486 48.6344C114.486 48.405 114.101 48.3238 113.387 48.2125C111.336 47.8916 110.353 47.5577 110.353 46.8551C110.353 46.2214 111.562 45.7312 113.43 45.7312C114.353 45.7204 115.274 45.8246 116.171 46.0412V46.8421C115.136 46.5895 114.265 46.4529 113.532 46.4529C112.745 46.4529 112.336 46.5594 112.336 46.7567C112.336 46.9274 112.691 47.0647 113.438 47.189C114.152 47.3214 114.846 47.4354 115.463 47.5959C116.16 47.8205 116.533 48.149 116.533 48.5805C116.533 49.2722 115.359 49.7215 113.316 49.7215ZM106.02 2.15244L90.8794 2.18453L90.9129 12.7453C87.4948 5.79993 79.0691 2.45628 74.9901 1.29143C70.8558 0.109515 61.7118 -1.49642 55.1494 2.86938C49.9131 1.39454 37.0438 -0.709836 31.0406 8.90051C29.3193 5.4879 24.9712 2.03637 16.8016 2.05617C5.18929 2.03705 -0.0170281 9.51776 4.18328e-05 17.4218C4.18328e-05 27.5914 7.5702 32.584 15.8552 32.584C22.126 32.558 24.7705 29.9286 26.5704 28.1519L27.3003 31.7748L32.0832 31.7639V28.9651C36.1343 33.5187 42.289 35.8976 45.5821 36.835C49.7096 37.9999 58.8666 39.6092 65.4351 35.253C71.0961 36.863 85.8473 39.205 90.9436 26.3876V32.4337L105.801 32.4078C117.117 32.3737 120 23.0289 120 16.5267C119.983 10.7973 117.567 2.12308 106.02 2.15244ZM17.6776 16.1716L17.6906 21.0611L25.6916 21.0522C24.2311 26.8976 18.9367 27.437 17.3629 27.437C12.4754 27.4541 7.36263 25.4112 7.32849 17.4983C7.32849 10.0736 12.0814 7.05969 17.1812 7.05082C22.2722 7.0358 24.7125 10.671 24.7125 11.8038L29.6067 11.7867C29.3712 12.4033 29.1274 13.0581 28.941 13.7559C28.6993 14.5739 28.5429 15.3789 28.3948 16.1538L17.6776 16.1716ZM62.5148 23.3007C62.1597 24.5597 61.7118 25.6324 61.1826 26.5637C58.3401 24.1699 56.4713 20.4104 58.0445 14.8231C58.4084 13.5859 58.8673 12.5043 59.406 11.573C62.2492 13.9641 64.1057 17.7215 62.5148 23.3007ZM47.1962 31.1282C42.1688 29.6903 35.7144 25.4467 38.2769 16.399C40.3389 9.11969 45.7767 7.57861 50.4375 7.99785C49.7608 9.21391 49.1791 10.5925 48.7291 12.1793C46.0894 21.4769 50.7611 27.422 56.1115 31.0231C53.1434 32.1552 49.8148 31.8684 47.1962 31.1282ZM82.2926 21.7207C80.236 28.9979 74.8099 30.5622 70.1252 30.1368C70.8148 28.9187 71.4041 27.5313 71.8547 25.9465C74.4848 16.655 69.8248 10.7072 64.4867 7.1191C67.4445 5.9761 70.765 6.26287 73.3774 7.0078C78.4068 8.42597 84.8504 12.6928 82.2926 21.7207ZM104.917 27.1892L97.9464 27.1953L97.9027 7.38743L104.768 7.38539C107.846 7.38129 112.672 8.08594 112.691 17.0196C112.701 21.9822 110.752 27.1755 104.917 27.1892Z" fill="black"/>
<path fill-rule="evenodd" clip-rule="evenodd" d="M90.9956 26.8593L30.022 26.9788L30.0049 16.7792L90.9574 16.657L90.9956 26.8593Z" fill="black"/>
<path fill-rule="evenodd" clip-rule="evenodd" d="M46.0805 24.5447H43.7304L43.7147 20.1966H43.6873L41.4457 24.5597H38.9713L36.7788 20.2048H36.7249V24.5658H34.3767L34.3638 19.3527L38.0672 19.3486L40.2488 23.4467H40.2727L42.4283 19.3356H46.0805V24.5447ZM58.1831 22.697C58.1961 24.0462 56.261 24.6437 53.2123 24.6587C52.1199 24.6587 50.4614 24.5597 49.3716 24.0415C48.7291 23.7205 48.4765 23.2965 48.4423 22.7742L48.428 19.3356L51.0117 19.3165L51.0206 22.697C51.0206 23.4167 51.9949 23.7458 53.1639 23.7458C54.9002 23.7458 55.6021 23.3607 55.6021 22.7394L55.598 19.3158L58.1838 19.3049L58.1831 22.697ZM62.4533 22.9196C62.4758 23.1852 62.8104 23.7328 65.0179 23.7328C66.2073 23.7199 67.5292 23.6045 67.5292 23.061C67.5292 22.654 66.6279 22.5489 65.3436 22.4185L64.0674 22.2942C62.0907 22.1016 60.2206 21.9132 60.2206 20.7593C60.2206 20.1919 60.9375 19.1602 64.8506 19.1492C68.5568 19.1492 69.5462 20.1919 69.5755 20.8316L67.138 20.8364C67.0806 20.5988 66.8751 20.0444 64.6772 20.0546C63.7103 20.0546 62.5605 20.2171 62.5605 20.6903C62.5605 21.087 63.3355 21.1703 63.8407 21.2318L66.7877 21.5226C68.4387 21.707 69.9627 21.9808 69.9627 22.9251C69.9627 24.4819 66.2592 24.6273 65.1886 24.6273C60.7996 24.6403 60.0253 23.5553 60.0253 22.9189L62.4533 22.9196ZM74.1871 24.4825H71.6765L71.671 19.2844L74.1871 19.2796V24.4825ZM84.2413 20.9545C84.0549 20.6548 83.6637 20.0635 81.5757 20.0635C80.3664 20.0635 78.5802 20.4104 78.5802 21.8872C78.5802 22.8254 79.4508 23.6687 81.5757 23.6687C82.9522 23.6687 83.9375 23.3088 84.2413 22.6711H86.7642C86.2829 23.8059 84.5677 24.5911 81.5217 24.6C78.3187 24.6109 76.0191 23.6816 75.9911 21.8872C75.9911 20.0635 78.4314 19.1212 81.5497 19.113C85.161 19.113 86.6284 20.1789 86.7642 20.9545H84.2413Z" fill="white"/>
<path fill-rule="evenodd" clip-rule="evenodd" d="M8.69613 47.2382C8.69613 47.5229 8.3322 47.6704 7.5702 47.6813H6.60268V46.7991H7.5702C8.31922 46.7998 8.68111 46.9487 8.69613 47.2382ZM10.7855 47.2143C10.7855 46.427 9.70871 46.0713 7.5463 46.0713L4.54883 46.0801L4.5577 49.942H6.60199V48.4365H7.39677C9.64863 48.4365 10.7855 48.0268 10.7855 47.2143ZM18.4977 47.1808C18.4977 47.4819 18.1228 47.6342 17.3629 47.6342H16.3885V46.7356H17.3629C18.0887 46.7356 18.4977 46.8934 18.4977 47.1808ZM21.448 49.8956L20.1398 48.5935C19.9042 48.3388 19.5874 48.1613 19.1764 48.0964C20.1548 47.8957 20.6068 47.57 20.6068 47.1678C20.6068 46.3806 19.5259 46.044 17.3526 46.044H14.349V49.9168H16.3994L16.3885 48.3518L16.6159 48.3388C17.4318 48.3388 17.7807 48.4481 18.0975 48.8086L19.134 49.9168L21.448 49.8956ZM30.7757 47.9469C30.7757 48.6345 29.8041 49.1418 28.4556 49.1418C27.1063 49.1418 26.1668 48.6488 26.1538 47.9599C26.1538 47.2662 27.12 46.7486 28.4556 46.7486C29.8034 46.7479 30.7757 47.2559 30.7757 47.9469ZM32.8992 47.9469C32.8992 47.3645 32.4479 46.8845 31.606 46.4994C30.7948 46.1266 29.7419 45.9511 28.4549 45.9511C27.1808 45.9559 26.1532 46.1395 25.3181 46.5144C24.5028 46.8934 24.0488 47.3822 24.0488 47.9592C24.0488 48.5334 24.5028 49.038 25.3352 49.4067C26.1661 49.7597 27.1808 49.9414 28.4549 49.9414C29.7413 49.9414 30.8139 49.7447 31.606 49.3931C32.4479 49.0175 32.8992 48.5252 32.8992 47.9469ZM42.3429 47.8957C42.3429 48.5928 41.3863 49.0687 40.0009 49.0687H38.5002L38.4851 46.795L40.0009 46.7739C41.3856 46.7739 42.3429 47.2402 42.3429 47.8957ZM44.4514 47.8957C44.4514 47.2662 43.8758 46.7479 42.8502 46.3799C41.8336 46.0201 40.808 45.9811 39.51 45.9811L36.4463 46.003L36.46 49.869H39.5107C40.6626 49.843 41.6151 49.8301 42.5334 49.5522C43.7747 49.1718 44.4514 48.5935 44.4514 47.8957ZM63.5827 49.8697C62.2888 49.8697 61.2127 49.6682 60.4343 49.3262C59.6286 48.9574 59.1595 48.4481 59.1595 47.8698C59.1595 46.7035 60.9382 45.8637 63.767 45.8637C64.7775 45.8446 65.7157 45.9559 66.6102 46.1737V47.0647C65.7303 46.7987 64.8166 46.6616 63.8974 46.6578C62.256 46.6578 61.2543 47.131 61.2543 47.8691C61.2543 48.5928 62.2307 49.038 63.7417 49.038C64.7366 49.038 65.7157 48.8803 66.6982 48.5396V49.4586C65.715 49.7215 64.727 49.8697 63.5827 49.8697ZM74.3817 46.6127V49.7604H72.2391V46.6127L69.5448 46.6257V45.9047L77.0624 45.8828V46.6127H74.3817ZM80.3938 49.729V45.8698H82.4852V49.729H80.3938ZM94.9366 47.7721C94.9366 47.189 94.4846 46.7042 93.6673 46.3396C92.8445 45.9641 91.7964 45.7804 90.5189 45.7804C89.2093 45.7941 88.1865 45.9818 87.3767 46.341C86.5369 46.7356 86.1101 47.2143 86.1101 47.7974C86.1101 48.388 86.541 48.868 87.3767 49.2353C88.1865 49.6082 89.2332 49.7966 90.5189 49.7795C91.8149 49.7795 92.8445 49.5918 93.6673 49.2353C94.4846 48.8509 94.9366 48.3511 94.9366 47.7721ZM92.8282 47.7721C92.8282 48.4617 91.8572 48.9704 90.5183 48.9704C89.1752 48.9752 88.1858 48.4802 88.1858 47.7974C88.1858 47.1125 89.1752 46.5936 90.5183 46.5936C91.8572 46.5936 92.8282 47.0825 92.8282 47.7721ZM105.062 49.6682L100.507 47.2559L100.522 49.6833L98.5158 49.6874V45.8275L100.283 45.8166L104.654 48.1354V45.8118H106.649V49.6682H105.062Z" fill="black"/>
</svg>
