<svg width="190" height="35" viewBox="0 0 190 35" fill="none" xmlns="http://www.w3.org/2000/svg">
<path d="M96.0765 0.686424C93.549 1.57573 89.9294 2.87069 89.1337 3.16713C88.7904 3.30755 87.1054 3.91602 85.3892 4.52449C83.673 5.13297 82.0192 5.72584 81.7228 5.85066C81.4263 5.95987 79.1016 6.80237 76.5741 7.72289C71.2383 9.65752 67.525 11.0149 66.7449 11.3113C66.4485 11.4205 64.1238 12.2786 61.5963 13.1836C59.0688 14.1041 55.9796 15.2274 54.7315 15.6799C53.4833 16.1323 49.3488 17.6457 45.5264 19.0343C41.7039 20.4228 38.3339 21.6554 38.0374 21.7646C37.741 21.8894 36.7269 22.2639 35.7752 22.5915C34.8391 22.9347 31.7031 24.0737 28.8323 25.119C25.9616 26.1643 22.5604 27.4125 21.2654 27.8805C19.986 28.3486 18.6755 28.8323 18.379 28.9415C17.0217 29.4875 13.6829 30.6265 13.6361 30.5641C13.6049 30.5329 13.0744 29.0975 12.4503 27.3813C10.3441 21.593 9.61077 19.5803 9.40795 19.0343C9.20512 18.535 7.80095 14.6345 6.59961 11.3113C5.30465 7.69168 3.35441 2.51185 3.08918 1.91898C2.91756 1.54453 2.77714 1.17009 2.77714 1.07647C2.77714 0.982861 2.68353 1.01406 2.55871 1.13888C2.4339 1.26369 2.02825 1.40411 1.6694 1.46652C1.29496 1.52893 0.764493 1.71615 0.499261 1.88777L0 2.19981L0.670882 4.18125C1.02973 5.27339 1.6694 7.0676 2.07505 8.19094C2.4807 9.29868 3.38561 11.8262 4.1033 13.8076C4.82099 15.7735 6.14715 19.4711 7.06766 21.9986C7.97257 24.5261 8.81507 26.8508 8.93989 27.1473C9.06471 27.4437 9.73559 29.2847 10.4377 31.235L11.7014 34.761L12.1071 34.6362C12.3411 34.5738 13.1992 34.2773 14.0105 33.9653C15.8359 33.2788 24.3234 30.174 26.8821 29.2535C27.9118 28.8791 29.3472 28.3642 30.0805 28.0834C30.8138 27.8181 31.5783 27.5373 31.7967 27.4749C32.0151 27.3969 35.2135 26.2423 38.8955 24.885C42.5932 23.5432 48.6935 21.3121 52.4692 19.9392C56.2449 18.5662 59.5837 17.3493 59.8801 17.24C60.1765 17.1152 64.6075 15.5082 69.7093 13.6516C74.8111 11.795 79.2421 10.1724 79.5385 10.0632C79.8349 9.93835 80.9739 9.53271 82.0504 9.14266C83.1269 8.75261 84.1879 8.37816 84.3907 8.30016C85.4984 7.8633 86.2317 7.58247 88.4004 6.80237C96.0453 3.99403 98.76 2.9643 98.8849 2.80828C98.9317 2.74588 99.1813 2.65227 99.4309 2.57426L99.899 2.46504L99.4621 2.30902C99.2281 2.23101 99.0877 2.0906 99.1345 2.01259C99.1813 1.91898 99.1345 1.76296 99.0409 1.63814C98.8849 1.45092 98.8849 1.40411 99.0565 1.40411C99.1813 1.40411 99.1501 1.3261 98.9785 1.20129C98.8069 1.07647 98.7132 0.889252 98.76 0.780037C98.8225 0.561611 98.37 -5.72205e-05 98.1516 -5.72205e-05C98.0736 -5.72205e-05 97.1531 0.311981 96.0765 0.686424Z" fill="black"/>
<path d="M131.758 5.88199C131.711 5.96 131.633 6.39686 131.571 6.86491C131.509 7.33297 131.368 8.17547 131.243 8.73714C130.885 10.4534 130.572 10.2973 134.208 10.2973H137.391L137.5 9.40802C137.562 8.90876 137.703 8.05066 137.827 7.48899C137.937 6.92732 138.046 6.31885 138.046 6.11602V5.77278H134.941C133.225 5.77278 131.789 5.81959 131.758 5.88199Z" fill="black"/>
<path d="M105.344 12.0291C102.458 12.3723 99.6495 14.1041 98.0425 16.5224C95.6554 20.0953 95.6866 24.4794 98.1049 26.7417C99.6183 28.1615 101.319 28.7075 104.158 28.7075C106.358 28.7075 108.433 28.2551 110.009 27.4282C111.101 26.8509 113.036 25.0255 113.426 24.183L113.691 23.6369L110.727 23.5901L107.747 23.5589L107.201 24.0269C106.483 24.6666 106.077 24.807 105.017 24.807C103.55 24.807 102.692 24.0582 102.52 22.6228L102.427 21.8427H108.449C113.098 21.8427 114.502 21.7959 114.596 21.6399C114.799 21.2966 114.846 18.5819 114.643 17.5834C113.863 13.5581 110.306 11.4206 105.344 12.0291ZM107.622 16.07C108.309 16.4288 108.87 17.3181 108.87 18.0982V18.5663H105.984C103.924 18.5663 103.097 18.5195 103.097 18.3947C103.097 17.989 103.815 16.8033 104.252 16.4912C105.329 15.7267 106.639 15.5707 107.622 16.07Z" fill="black"/>
<path d="M127.202 12.0135C125.736 12.2319 124.066 13.4176 123.161 14.8686C123.005 15.1183 122.865 15.2899 122.834 15.2587C122.803 15.2275 122.881 14.6814 123.005 14.0417C123.364 12.1383 123.645 12.3099 120.384 12.3567L117.529 12.4035L117.264 13.8857C116.889 15.9452 116.562 17.7862 116.297 19.3464C116.172 20.0797 115.922 21.515 115.735 22.5448C114.986 26.7729 114.799 27.865 114.799 28.1302C114.799 28.3799 115.017 28.3955 117.857 28.3643C120.4 28.3175 120.946 28.2707 121.04 28.0834C121.118 27.9586 121.289 27.1473 121.43 26.2892C121.929 23.2468 122.319 21.437 122.615 20.7817C123.411 18.9563 124.628 18.1918 126.781 18.2074C127.483 18.2074 128.06 18.1606 128.06 18.0826C128.06 17.9578 128.763 13.9637 128.997 12.7936C129.075 12.4035 129.121 12.0759 129.106 12.0759C128.981 11.9511 127.842 11.9043 127.202 12.0135Z" fill="black"/>
<path d="M161.651 12.0135C157.673 12.4503 154.49 15.009 153.195 18.8003C152.696 20.2825 152.508 22.0767 152.727 23.4185C152.945 24.8382 153.304 25.5559 154.287 26.6013C155.676 28.0678 157.532 28.7075 160.387 28.7075C163.648 28.7075 166.113 27.787 168.064 25.8368C169.717 24.1986 170.622 22.2951 170.981 19.7208C171.512 15.992 169.702 13.168 166.238 12.2631C165.13 11.9667 163.024 11.8575 161.651 12.0135ZM164.038 16.4756C164.928 17.0685 165.224 18.5819 164.818 20.5009C164.569 21.7179 164.007 23.0596 163.508 23.6213C163.149 24.0269 162.088 24.495 161.511 24.495C160.122 24.495 159.42 23.7149 159.311 22.0299C159.186 20.2669 159.919 17.9266 160.887 17.0217C161.745 16.226 163.243 15.9608 164.038 16.4756Z" fill="black"/>
<path d="M183.635 12.0135C182.496 12.1851 181.061 12.934 179.984 13.8857C178.985 14.775 178.939 14.7438 179.298 13.2149L179.516 12.3255H176.598H173.681L173.166 15.2431C172.261 20.4229 171.918 22.3576 171.653 23.871C171.512 24.6823 171.263 25.9772 171.122 26.7573C170.982 27.5218 170.904 28.2239 170.966 28.2863C171.107 28.4423 176.973 28.3643 177.144 28.2083C177.207 28.1459 177.3 27.7558 177.378 27.3502C177.94 23.8866 178.783 19.4556 178.985 18.9095C179.5 17.4586 180.124 17.0061 181.591 17.0061C183.526 17.0061 183.744 17.755 182.98 21.9987C182.184 26.4609 181.997 27.5218 181.981 27.9275L181.965 28.3175H185.086H188.206L188.705 25.5092C189.891 18.8315 190 18.0514 190 16.6473C190 15.3211 189.954 15.0871 189.517 14.2134C188.986 13.1524 188.144 12.466 187.036 12.1695C186.162 11.9511 184.54 11.8731 183.635 12.0135Z" fill="black"/>
<path d="M80.8962 13.6048C81.0054 14.3225 81.2862 15.9139 81.5046 17.162C81.7075 18.4102 81.9883 20.0172 82.1131 20.7505C82.2379 21.4838 82.472 22.8879 82.6436 23.8709C82.8152 24.8538 83.0336 26.1175 83.1272 26.6792C83.4393 28.6138 83.0024 28.3954 86.5441 28.3954C90.0857 28.3954 90.4757 28.3486 90.7098 27.8806C90.7878 27.6933 91.5679 26.1643 92.4416 24.4949C95.718 18.1294 98.5731 12.5127 98.5731 12.4191C98.5731 12.3723 97.2158 12.3255 95.5776 12.3255H92.5664L91.6771 14.3225C89.1496 19.9704 88.2447 21.9362 88.1198 22.061C88.0574 22.1235 87.9482 21.7022 87.9014 21.1249C87.8546 20.5321 87.6986 19.0655 87.5738 17.8641C87.449 16.6628 87.3085 15.2274 87.2617 14.6657C87.2149 14.1041 87.1369 13.3552 87.0901 12.9807L86.9965 12.3255H83.8293H80.6777L80.8962 13.6048Z" fill="black"/>
<path d="M130.494 12.9808C130.323 14.073 129.324 19.8301 129.137 20.7194C129.043 21.1718 128.903 21.9519 128.84 22.4356C128.762 22.9192 128.528 24.3234 128.31 25.556C128.092 26.7729 127.904 27.9118 127.904 28.0835C127.904 28.3799 128.029 28.3955 130.806 28.3955C132.507 28.3955 133.817 28.3331 134.005 28.2395C134.207 28.1303 134.301 27.9118 134.301 27.5686C134.301 27.2878 134.379 26.7885 134.457 26.4453C134.551 26.102 134.676 25.3999 134.754 24.8851C134.925 23.8085 136.361 15.6644 136.719 13.8077C136.844 13.1212 136.953 12.5128 136.953 12.4348C136.953 12.3724 135.518 12.3255 133.771 12.3255H130.603L130.494 12.9808Z" fill="black"/>
<path d="M138.607 12.8248C138.467 13.5113 137.89 16.7409 137.89 16.8813C137.89 16.9437 139.637 17.0217 141.775 17.0373L145.659 17.0841L144.302 18.8783C142.258 21.5931 138.623 26.3829 137.063 28.4267L135.674 30.2677L135.378 31.9371C135.206 32.8732 135.05 33.7782 135.003 33.9654L134.925 34.3242H154.1C166.098 34.3242 173.431 34.2618 173.68 34.1682C173.946 34.0746 174.055 33.9498 173.992 33.7782C173.946 33.6533 173.961 33.5441 174.024 33.5441C174.102 33.5441 174.18 33.1385 174.211 32.6548C174.242 32.1712 174.336 31.6407 174.429 31.4691C174.554 31.235 174.539 31.1882 174.367 31.2974C174.211 31.3911 174.195 31.3755 174.351 31.1882C174.445 31.0634 174.554 30.767 174.585 30.5174C174.617 30.1741 174.554 30.0493 174.32 29.9713C174.148 29.9245 167.034 29.8621 158.5 29.8465C145.129 29.7997 143.023 29.7685 143.085 29.5656C143.132 29.4408 144.006 28.2707 145.004 26.9601C146.018 25.6496 147.828 23.2781 149.029 21.6867C150.231 20.0953 151.588 18.3167 152.056 17.7394C152.977 16.5693 153.086 16.3196 153.414 14.2602C153.538 13.4801 153.679 12.7156 153.741 12.5752C153.835 12.3411 153.211 12.3255 146.268 12.3255H138.717L138.607 12.8248Z" fill="black"/>
</svg>
