<svg width="160" height="52" viewBox="0 0 160 52" fill="none" xmlns="http://www.w3.org/2000/svg">
<g clip-path="url(#clip0_314_591)">
<path d="M32.5235 17.6052C32.1434 16.178 31.017 15.0529 29.5859 14.6676C26.9965 13.9751 16.608 13.9751 16.608 13.9751C16.608 13.9751 6.22464 13.9751 3.63008 14.6676C2.20288 15.0477 1.07776 16.1741 0.69248 17.6052C0 20.1946 0 25.6001 0 25.6001C0 25.6001 0 31.0055 0.69248 33.5949C1.07264 35.0221 2.19904 36.1473 3.63008 36.5325C6.22464 37.225 16.608 37.225 16.608 37.225C16.608 37.225 26.9965 37.225 29.5859 36.5325C31.0131 36.1524 32.1382 35.026 32.5235 33.5949C33.216 31.0055 33.216 25.6001 33.216 25.6001C33.216 25.6001 33.216 20.1946 32.5235 17.6052Z" fill="#FFEAEA"/>
<path d="M13.2891 30.5831L21.9188 25.6001L13.2891 20.6171V30.5831Z" fill="black"/>
<path d="M48.2126 35.127C47.5573 34.6829 47.0875 33.9968 46.8123 33.0611C46.5371 32.1254 46.395 30.8838 46.395 29.3299V27.2166C46.395 25.6473 46.5537 24.3891 46.8712 23.4381C47.1886 22.487 47.6853 21.7945 48.356 21.3619C49.0267 20.928 49.9099 20.7065 51.003 20.7065C52.0808 20.7065 52.9422 20.928 53.5925 21.3721C54.2427 21.8163 54.7176 22.5088 55.0197 23.4483C55.3205 24.3891 55.4689 25.6461 55.4689 27.2102V29.3235C55.4689 30.8774 55.3205 32.1241 55.0299 33.0649C54.7393 34.0057 54.2632 34.6982 53.6027 35.1309C52.9473 35.5648 52.0539 35.7862 50.9288 35.7862C49.7768 35.7926 48.868 35.5712 48.2126 35.127ZM51.8952 32.8448C52.0744 32.3686 52.1704 31.5929 52.1704 30.5203V25.9814C52.1704 24.9357 52.0808 24.1741 51.8952 23.6877C51.716 23.2064 51.3934 22.9632 50.9339 22.9632C50.4897 22.9632 50.1787 23.2064 49.9931 23.6877C49.8139 24.1689 49.7179 24.9344 49.7179 25.9814V30.5203C49.7179 31.5981 49.8024 32.375 49.9765 32.8448C50.1505 33.3209 50.468 33.5577 50.9275 33.5577C51.3934 33.5577 51.7109 33.3197 51.8952 32.8448Z" fill="black"/>
<path d="M98.6598 29.367V30.1018C98.6598 31.0374 98.6867 31.735 98.7443 32.2048C98.7968 32.6694 98.9133 33.0138 99.0874 33.225C99.2614 33.4362 99.5315 33.5475 99.8963 33.5475C100.388 33.5475 100.726 33.3568 100.905 32.9766C101.084 32.5965 101.185 31.9616 101.201 31.0746L104.028 31.2384C104.044 31.3651 104.05 31.5392 104.05 31.7619C104.05 33.1098 103.68 34.1133 102.945 34.7789C102.211 35.4445 101.17 35.7773 99.8221 35.7773C98.2054 35.7773 97.0739 35.2704 96.425 34.2554C95.7747 33.2403 95.4521 31.6762 95.4521 29.5526V27.0106C95.4521 24.823 95.7901 23.232 96.4608 22.2234C97.1315 21.2198 98.2835 20.7168 99.9168 20.7168C101.042 20.7168 101.903 20.9229 102.506 21.335C103.109 21.7472 103.532 22.3872 103.78 23.2589C104.023 24.1306 104.15 25.335 104.15 26.8685V29.3632H98.6598V29.367ZM99.0771 23.2384C98.9133 23.4445 98.8019 23.7824 98.7443 24.247C98.6867 24.7117 98.6598 25.4259 98.6598 26.3718V27.4176H101.059V26.3718C101.059 25.4362 101.027 24.7283 100.964 24.247C100.9 23.7658 100.785 23.4227 100.621 23.2269C100.457 23.031 100.198 22.9312 99.849 22.9312C99.4995 22.9261 99.241 23.0323 99.0771 23.2384Z" fill="black"/>
<path d="M40.2332 29.0931L36.502 15.6237H39.757L41.0626 21.7268C41.3954 23.2333 41.6386 24.512 41.7973 25.5731H41.892C42.0034 24.8128 42.2466 23.5392 42.6267 21.7472L43.9797 15.6173H47.2347L43.4613 29.0919V35.5546H40.2332V29.0931Z" fill="black"/>
<path d="M66.0519 20.9921V35.5495H63.4894L63.2039 33.769H63.1348C62.4372 35.1169 61.3914 35.7876 60.0013 35.7876C59.0349 35.7876 58.3207 35.4701 57.8612 34.8365C57.4017 34.2029 57.1738 33.2148 57.1738 31.8669V20.9921H60.4494V31.6813C60.4494 32.3316 60.5185 32.7962 60.6605 33.0714C60.8026 33.3466 61.0407 33.4887 61.3735 33.4887C61.659 33.4887 61.9342 33.4042 62.1927 33.2301C62.4513 33.0561 62.6471 32.8333 62.7738 32.5645V20.9921H66.0519Z" fill="black"/>
<path d="M82.8659 20.9921V35.5495H80.3033L80.0179 33.769H79.9487C79.2511 35.1169 78.2054 35.7876 76.8153 35.7876C75.8489 35.7876 75.1347 35.4701 74.6752 34.8365C74.2156 34.2029 73.9878 33.2148 73.9878 31.8669V20.9921H77.2633V31.6813C77.2633 32.3316 77.3324 32.7962 77.4745 33.0714C77.6166 33.3466 77.8547 33.4887 78.1875 33.4887C78.4729 33.4887 78.7481 33.4042 79.0067 33.2301C79.2652 33.0561 79.4611 32.8333 79.5878 32.5645V20.9921H82.8659Z" fill="black"/>
<path d="M74.9609 18.2605H71.7059V35.5507H68.4982V18.2605H65.2432V15.6237H74.9558V18.2605H74.9609Z" fill="black"/>
<path d="M93.7145 23.3229C93.5135 22.4039 93.1961 21.7383 92.7532 21.3261C92.309 20.9139 91.701 20.7079 90.9253 20.7079C90.3225 20.7079 89.7631 20.8768 89.2396 21.2199C88.7161 21.5578 88.3154 22.0071 88.03 22.5626H88.0031V14.8903H84.8428V35.5559H87.5487L87.8815 34.1773H87.9506C88.2041 34.6688 88.5842 35.0541 89.0924 35.3395C89.5993 35.625 90.1599 35.7671 90.7781 35.7671C91.8879 35.7671 92.702 35.2551 93.2242 34.2349C93.7477 33.2147 94.0063 31.6199 94.0063 29.4477V27.1437C94.0101 25.5155 93.9103 24.2419 93.7145 23.3229ZM90.7077 29.2621C90.7077 30.3245 90.6655 31.1539 90.5759 31.7568C90.4914 32.3597 90.3429 32.7872 90.1369 33.0407C89.9308 33.2941 89.6556 33.4208 89.3074 33.4208C89.0373 33.4208 88.789 33.3568 88.5573 33.2301C88.3295 33.1034 88.1401 32.9127 87.9967 32.6592V24.3891C88.1081 23.9923 88.2975 23.6711 88.5676 23.4163C88.8377 23.1629 89.1282 23.0362 89.4444 23.0362C89.7772 23.0362 90.0357 23.168 90.2162 23.4266C90.3954 23.6851 90.5221 24.1293 90.5964 24.7424C90.6655 25.3607 90.7026 26.2375 90.7026 27.3792V29.2608H90.7077V29.2621Z" fill="black"/>
<path d="M113.02 15.6238H108.548V35.7671H111.455V19.4075L114.66 35.7671H117.343L120.696 19.035V35.7876H123.529V15.6238H118.908L116.038 31.5559L113.02 15.6238Z" fill="black"/>
<path d="M132.1 35.7876H134.41V20.9921H131.279V32.6746C130.757 33.5693 128.895 34.3143 128.895 32.5261C128.895 30.738 128.895 20.9933 128.895 20.9933H125.764C125.764 20.9933 125.764 30.4397 125.764 32.9741C125.764 35.5085 129.193 37.7447 131.577 33.9431L132.1 35.7876Z" fill="black"/>
<path d="M149.391 20.9921H146.484V35.7876H149.391V20.9921Z" fill="black"/>
<path d="M148.013 19.2589C147.008 19.2589 146.186 18.4371 146.186 17.4323V16.9856C146.186 15.9808 147.008 15.1591 148.013 15.1591C149.017 15.1591 149.839 15.9808 149.839 16.9856V17.4323C149.838 18.4371 149.017 19.2589 148.013 19.2589Z" fill="black"/>
<path d="M141.789 25.7063H144.324C144.398 24.4762 144.472 20.7501 140.522 20.7501C137.243 20.7501 136.348 22.8365 136.348 24.7002C136.348 26.5639 137.293 27.8797 139.976 29.9674C142.262 31.1604 142.36 33.8932 140.472 33.8932C139.578 33.8932 139.031 33.2967 139.031 32.4519C139.031 31.6071 139.031 31.1104 139.031 31.1104H136.348C136.348 31.1104 136.348 32.2535 136.348 32.6503C136.348 33.9917 137.243 36.0295 140.372 36.0295C143.503 36.0295 144.596 34.29 144.596 31.6071C144.596 28.9242 138.932 26.29 138.932 24.4519C138.932 22.3156 141.752 22.5511 141.752 24.1037L141.789 25.7063Z" fill="black"/>
<path d="M154.732 24.5005C154.434 27.8797 154.683 30.4628 154.782 32.1025C154.918 34.3348 157.267 34.3386 157.267 32.0525C157.267 30.5127 157.267 30.4129 157.267 30.4129H160C160 33.394 158.956 35.8285 156.024 35.8285C152.595 35.8285 151.602 33.394 151.602 30.8097C151.602 28.2253 151.602 26.4871 151.602 26.4871C151.602 23.0093 153.093 20.6733 155.924 20.6733C159.7 20.6733 159.8 23.3562 159.8 24.5991C159.8 25.8407 159.8 26.2388 159.8 26.2388L157.266 26.4372C157.266 26.4372 157.266 25.8407 157.266 24.4493C157.267 23.0593 155.527 21.8177 154.732 24.5005Z" fill="black"/>
</g>
<defs>
<clipPath id="clip0_314_591">
<rect width="160" height="51.2" fill="white"/>
</clipPath>
</defs>
</svg>
