<svg width="178" height="60" viewBox="0 0 178 60" fill="none" xmlns="http://www.w3.org/2000/svg">
<path d="M80.968 21.248V31.616C80.968 32.752 81.264 33.624 81.856 34.232C82.448 34.824 83.28 35.12 84.352 35.12C85.44 35.12 86.28 34.824 86.872 34.232C87.464 33.624 87.76 32.752 87.76 31.616V21.248H91.144V31.592C91.144 33.016 90.832 34.224 90.208 35.216C89.6 36.192 88.776 36.928 87.736 37.424C86.712 37.92 85.568 38.168 84.304 38.168C83.056 38.168 81.92 37.92 80.896 37.424C79.888 36.928 79.088 36.192 78.496 35.216C77.904 34.224 77.608 33.016 77.608 31.592V21.248H80.968ZM97.7504 26.624C98.1824 26.016 98.7744 25.512 99.5264 25.112C100.294 24.696 101.166 24.488 102.142 24.488C103.278 24.488 104.302 24.768 105.214 25.328C106.142 25.888 106.87 26.688 107.398 27.728C107.942 28.752 108.214 29.944 108.214 31.304C108.214 32.664 107.942 33.872 107.398 34.928C106.87 35.968 106.142 36.776 105.214 37.352C104.302 37.928 103.278 38.216 102.142 38.216C101.166 38.216 100.302 38.016 99.5504 37.616C98.8144 37.216 98.2144 36.712 97.7504 36.104V44.336H94.3904V24.704H97.7504V26.624ZM104.782 31.304C104.782 30.504 104.614 29.816 104.278 29.24C103.958 28.648 103.526 28.2 102.982 27.896C102.454 27.592 101.878 27.44 101.254 27.44C100.646 27.44 100.07 27.6 99.5264 27.92C98.9984 28.224 98.5664 28.672 98.2304 29.264C97.9104 29.856 97.7504 30.552 97.7504 31.352C97.7504 32.152 97.9104 32.848 98.2304 33.44C98.5664 34.032 98.9984 34.488 99.5264 34.808C100.07 35.112 100.646 35.264 101.254 35.264C101.878 35.264 102.454 35.104 102.982 34.784C103.526 34.464 103.958 34.008 104.278 33.416C104.614 32.824 104.782 32.12 104.782 31.304ZM121.727 38.168C120.623 38.168 119.647 37.976 118.799 37.592C117.967 37.208 117.311 36.672 116.831 35.984C116.351 35.296 116.095 34.528 116.063 33.68H117.839C117.919 34.496 118.279 35.216 118.919 35.84C119.559 36.448 120.495 36.752 121.727 36.752C122.863 36.752 123.759 36.464 124.415 35.888C125.087 35.296 125.423 34.552 125.423 33.656C125.423 32.936 125.239 32.36 124.871 31.928C124.503 31.48 124.047 31.152 123.503 30.944C122.959 30.72 122.207 30.48 121.247 30.224C120.127 29.92 119.239 29.624 118.583 29.336C117.927 29.048 117.367 28.6 116.903 27.992C116.439 27.384 116.207 26.56 116.207 25.52C116.207 24.656 116.431 23.888 116.879 23.216C117.327 22.528 117.959 21.992 118.775 21.608C119.591 21.224 120.527 21.032 121.583 21.032C123.135 21.032 124.383 21.416 125.327 22.184C126.287 22.936 126.839 23.912 126.983 25.112H125.159C125.047 24.424 124.671 23.816 124.031 23.288C123.391 22.744 122.527 22.472 121.439 22.472C120.431 22.472 119.591 22.744 118.919 23.288C118.247 23.816 117.911 24.544 117.911 25.472C117.911 26.176 118.095 26.744 118.463 27.176C118.831 27.608 119.287 27.936 119.831 28.16C120.391 28.384 121.143 28.624 122.087 28.88C123.175 29.184 124.055 29.488 124.727 29.792C125.399 30.08 125.967 30.528 126.431 31.136C126.895 31.744 127.127 32.56 127.127 33.584C127.127 34.368 126.919 35.112 126.503 35.816C126.087 36.52 125.471 37.088 124.655 37.52C123.839 37.952 122.863 38.168 121.727 38.168ZM136.109 38.192C134.877 38.192 133.765 37.92 132.773 37.376C131.797 36.816 131.021 36.032 130.445 35.024C129.885 34 129.605 32.808 129.605 31.448C129.605 30.088 129.893 28.904 130.469 27.896C131.045 26.872 131.829 26.088 132.821 25.544C133.813 24.984 134.925 24.704 136.157 24.704C137.389 24.704 138.501 24.984 139.493 25.544C140.501 26.088 141.285 26.872 141.845 27.896C142.421 28.904 142.709 30.088 142.709 31.448C142.709 32.792 142.421 33.976 141.845 35C141.269 36.024 140.477 36.816 139.469 37.376C138.461 37.92 137.341 38.192 136.109 38.192ZM136.109 36.728C136.973 36.728 137.773 36.536 138.509 36.152C139.245 35.752 139.837 35.16 140.285 34.376C140.749 33.576 140.981 32.6 140.981 31.448C140.981 30.296 140.757 29.328 140.309 28.544C139.861 27.744 139.269 27.152 138.533 26.768C137.797 26.368 136.997 26.168 136.133 26.168C135.269 26.168 134.469 26.368 133.733 26.768C132.997 27.152 132.405 27.744 131.957 28.544C131.525 29.328 131.309 30.296 131.309 31.448C131.309 32.6 131.525 33.576 131.957 34.376C132.405 35.16 132.989 35.752 133.709 36.152C134.445 36.536 135.245 36.728 136.109 36.728ZM157.124 24.896V38H155.444V35.696C155.06 36.512 154.468 37.136 153.668 37.568C152.868 38 151.972 38.216 150.98 38.216C149.412 38.216 148.132 37.736 147.14 36.776C146.148 35.8 145.652 34.392 145.652 32.552V24.896H147.308V32.36C147.308 33.784 147.66 34.872 148.364 35.624C149.084 36.376 150.06 36.752 151.292 36.752C152.556 36.752 153.564 36.352 154.316 35.552C155.068 34.752 155.444 33.576 155.444 32.024V24.896H157.124ZM162.639 20.24V38H160.959V20.24H162.639ZM177.243 24.896L169.467 44.168H167.715L170.259 37.928L164.883 24.896H166.731L171.195 36.08L175.515 24.896H177.243Z" fill="black"/>
<circle cx="30" cy="30" r="30" fill="white"/>
<path d="M14.25 34.5001C13.836 34.5001 13.5 34.1641 13.5 33.7501V26.25C13.5 25.836 13.836 25.5 14.25 25.5C14.664 25.5 15 25.836 15 26.25V33.7501C15 34.1641 14.664 34.5001 14.25 34.5001Z" fill="#F44336"/>
<path d="M18.7505 40.5C18.3365 40.5 18.0005 40.164 18.0005 39.75V20.25C18.0005 19.836 18.3365 19.5 18.7505 19.5C19.1645 19.5 19.5005 19.836 19.5005 20.25V39.75C19.5005 40.164 19.1645 40.5 18.7505 40.5Z" fill="#F44336"/>
<path d="M23.25 46.5C22.836 46.5 22.5 46.164 22.5 45.75V14.25C22.5 13.836 22.836 13.5 23.25 13.5C23.664 13.5 24 13.836 24 14.25V45.75C24 46.164 23.664 46.5 23.25 46.5Z" fill="#F44336"/>
<path d="M27.7505 45C27.3365 45 27.0005 44.664 27.0005 44.25V15.75C27.0005 15.336 27.3365 15 27.7505 15C28.1645 15 28.5005 15.336 28.5005 15.75V44.25C28.5005 44.664 28.1645 45 27.7505 45Z" fill="#F44336"/>
<path d="M32.25 39.0001C31.836 39.0001 31.5 38.6641 31.5 38.2501V21.75C31.5 21.336 31.836 21 32.25 21C32.664 21 33 21.336 33 21.75V38.2501C33 38.6641 32.664 39.0001 32.25 39.0001Z" fill="#F44336"/>
<path d="M36.75 45C36.336 45 36 44.664 36 44.25V15.75C36 15.336 36.336 15 36.75 15C37.164 15 37.5 15.336 37.5 15.75V44.25C37.5 44.664 37.164 45 36.75 45Z" fill="#F44336"/>
<path d="M41.2505 39.0001C40.8365 39.0001 40.5005 38.6641 40.5005 38.2501V21.75C40.5005 21.336 40.8365 21 41.2505 21C41.6645 21 42.0005 21.336 42.0005 21.75V38.2501C42.0005 38.6641 41.6645 39.0001 41.2505 39.0001Z" fill="#F44336"/>
<path d="M45.75 34.5001C45.336 34.5001 45 34.1641 45 33.7501V26.25C45 25.836 45.336 25.5 45.75 25.5C46.164 25.5 46.5 25.836 46.5 26.25V33.7501C46.5 34.1641 46.164 34.5001 45.75 34.5001Z" fill="#F44336"/>
<path d="M14.25 34.5001C13.836 34.5001 13.5 34.1641 13.5 33.7501V26.25C13.5 25.836 13.836 25.5 14.25 25.5C14.664 25.5 15 25.836 15 26.25V33.7501C15 34.1641 14.664 34.5001 14.25 34.5001Z" fill="black"/>
<path d="M18.7505 40.5C18.3365 40.5 18.0005 40.164 18.0005 39.75V20.25C18.0005 19.836 18.3365 19.5 18.7505 19.5C19.1645 19.5 19.5005 19.836 19.5005 20.25V39.75C19.5005 40.164 19.1645 40.5 18.7505 40.5Z" fill="black"/>
<path d="M23.25 46.5C22.836 46.5 22.5 46.164 22.5 45.75V14.25C22.5 13.836 22.836 13.5 23.25 13.5C23.664 13.5 24 13.836 24 14.25V45.75C24 46.164 23.664 46.5 23.25 46.5Z" fill="black"/>
<path d="M27.7505 45C27.3365 45 27.0005 44.664 27.0005 44.25V15.75C27.0005 15.336 27.3365 15 27.7505 15C28.1645 15 28.5005 15.336 28.5005 15.75V44.25C28.5005 44.664 28.1645 45 27.7505 45Z" fill="black"/>
<path d="M32.25 39.0001C31.836 39.0001 31.5 38.6641 31.5 38.2501V21.75C31.5 21.336 31.836 21 32.25 21C32.664 21 33 21.336 33 21.75V38.2501C33 38.6641 32.664 39.0001 32.25 39.0001Z" fill="black"/>
<path d="M36.75 45C36.336 45 36 44.664 36 44.25V15.75C36 15.336 36.336 15 36.75 15C37.164 15 37.5 15.336 37.5 15.75V44.25C37.5 44.664 37.164 45 36.75 45Z" fill="black"/>
<path d="M41.2505 39.0001C40.8365 39.0001 40.5005 38.6641 40.5005 38.2501V21.75C40.5005 21.336 40.8365 21 41.2505 21C41.6645 21 42.0005 21.336 42.0005 21.75V38.2501C42.0005 38.6641 41.6645 39.0001 41.2505 39.0001Z" fill="black"/>
<path d="M45.75 34.5001C45.336 34.5001 45 34.1641 45 33.7501V26.25C45 25.836 45.336 25.5 45.75 25.5C46.164 25.5 46.5 25.836 46.5 26.25V33.7501C46.5 34.1641 46.164 34.5001 45.75 34.5001Z" fill="black"/>
</svg>
