<svg width="120" height="40" viewBox="0 0 120 40" fill="none" xmlns="http://www.w3.org/2000/svg">
<path d="M55.312 14.832V21.744C55.312 22.5013 55.5093 23.0827 55.904 23.488C56.2987 23.8827 56.8533 24.08 57.568 24.08C58.2933 24.08 58.8533 23.8827 59.248 23.488C59.6427 23.0827 59.84 22.5013 59.84 21.744V14.832H62.096V21.728C62.096 22.6773 61.888 23.4827 61.472 24.144C61.0667 24.7947 60.5173 25.2853 59.824 25.616C59.1413 25.9467 58.3787 26.112 57.536 26.112C56.704 26.112 55.9467 25.9467 55.264 25.616C54.592 25.2853 54.0587 24.7947 53.664 24.144C53.2693 23.4827 53.072 22.6773 53.072 21.728V14.832H55.312ZM66.5003 18.416C66.7883 18.0107 67.1829 17.6747 67.6843 17.408C68.1963 17.1307 68.7776 16.992 69.4283 16.992C70.1856 16.992 70.8683 17.1787 71.4763 17.552C72.0949 17.9253 72.5803 18.4587 72.9323 19.152C73.2949 19.8347 73.4763 20.6293 73.4763 21.536C73.4763 22.4427 73.2949 23.248 72.9323 23.952C72.5803 24.6453 72.0949 25.184 71.4763 25.568C70.8683 25.952 70.1856 26.144 69.4283 26.144C68.7776 26.144 68.2016 26.0107 67.7003 25.744C67.2096 25.4773 66.8096 25.1413 66.5003 24.736V30.224H64.2603V17.136H66.5003V18.416ZM71.1883 21.536C71.1883 21.0027 71.0763 20.544 70.8523 20.16C70.6389 19.7653 70.3509 19.4667 69.9883 19.264C69.6363 19.0613 69.2523 18.96 68.8363 18.96C68.4309 18.96 68.0469 19.0667 67.6843 19.28C67.3323 19.4827 67.0443 19.7813 66.8203 20.176C66.6069 20.5707 66.5003 21.0347 66.5003 21.568C66.5003 22.1013 66.6069 22.5653 66.8203 22.96C67.0443 23.3547 67.3323 23.6587 67.6843 23.872C68.0469 24.0747 68.4309 24.176 68.8363 24.176C69.2523 24.176 69.6363 24.0693 69.9883 23.856C70.3509 23.6427 70.6389 23.3387 70.8523 22.944C71.0763 22.5493 71.1883 22.08 71.1883 21.536ZM82.4845 26.112C81.7485 26.112 81.0978 25.984 80.5325 25.728C79.9778 25.472 79.5405 25.1147 79.2205 24.656C78.9005 24.1973 78.7298 23.6853 78.7085 23.12H79.8925C79.9458 23.664 80.1858 24.144 80.6125 24.56C81.0392 24.9653 81.6632 25.168 82.4845 25.168C83.2418 25.168 83.8392 24.976 84.2765 24.592C84.7245 24.1973 84.9485 23.7013 84.9485 23.104C84.9485 22.624 84.8258 22.24 84.5805 21.952C84.3352 21.6533 84.0312 21.4347 83.6685 21.296C83.3058 21.1467 82.8045 20.9867 82.1645 20.816C81.4178 20.6133 80.8258 20.416 80.3885 20.224C79.9512 20.032 79.5778 19.7333 79.2685 19.328C78.9592 18.9227 78.8045 18.3733 78.8045 17.68C78.8045 17.104 78.9538 16.592 79.2525 16.144C79.5512 15.6853 79.9725 15.328 80.5165 15.072C81.0605 14.816 81.6845 14.688 82.3885 14.688C83.4232 14.688 84.2552 14.944 84.8845 15.456C85.5245 15.9573 85.8925 16.608 85.9885 17.408H84.7725C84.6978 16.9493 84.4472 16.544 84.0205 16.192C83.5938 15.8293 83.0178 15.648 82.2925 15.648C81.6205 15.648 81.0605 15.8293 80.6125 16.192C80.1645 16.544 79.9405 17.0293 79.9405 17.648C79.9405 18.1173 80.0632 18.496 80.3085 18.784C80.5538 19.072 80.8578 19.2907 81.2205 19.44C81.5938 19.5893 82.0952 19.7493 82.7245 19.92C83.4498 20.1227 84.0365 20.3253 84.4845 20.528C84.9325 20.72 85.3112 21.0187 85.6205 21.424C85.9298 21.8293 86.0845 22.3733 86.0845 23.056C86.0845 23.5787 85.9458 24.0747 85.6685 24.544C85.3912 25.0133 84.9805 25.392 84.4365 25.68C83.8925 25.968 83.2418 26.112 82.4845 26.112ZM92.0728 26.128C91.2514 26.128 90.5101 25.9467 89.8488 25.584C89.1981 25.2107 88.6808 24.688 88.2968 24.016C87.9234 23.3333 87.7368 22.5387 87.7368 21.632C87.7368 20.7253 87.9288 19.936 88.3128 19.264C88.6968 18.5813 89.2194 18.0587 89.8808 17.696C90.5421 17.3227 91.2834 17.136 92.1048 17.136C92.9261 17.136 93.6674 17.3227 94.3288 17.696C95.0008 18.0587 95.5234 18.5813 95.8968 19.264C96.2808 19.936 96.4728 20.7253 96.4728 21.632C96.4728 22.528 96.2808 23.3173 95.8968 24C95.5128 24.6827 94.9848 25.2107 94.3128 25.584C93.6408 25.9467 92.8941 26.128 92.0728 26.128ZM92.0728 25.152C92.6488 25.152 93.1821 25.024 93.6728 24.768C94.1634 24.5013 94.5581 24.1067 94.8568 23.584C95.1661 23.0507 95.3208 22.4 95.3208 21.632C95.3208 20.864 95.1714 20.2187 94.8728 19.696C94.5741 19.1627 94.1794 18.768 93.6888 18.512C93.1981 18.2453 92.6648 18.112 92.0888 18.112C91.5128 18.112 90.9794 18.2453 90.4888 18.512C89.9981 18.768 89.6034 19.1627 89.3048 19.696C89.0168 20.2187 88.8728 20.864 88.8728 21.632C88.8728 22.4 89.0168 23.0507 89.3048 23.584C89.6034 24.1067 89.9928 24.5013 90.4728 24.768C90.9634 25.024 91.4968 25.152 92.0728 25.152ZM106.082 17.264V26H104.962V24.464C104.706 25.008 104.312 25.424 103.778 25.712C103.245 26 102.648 26.144 101.986 26.144C100.941 26.144 100.088 25.824 99.4264 25.184C98.765 24.5333 98.4344 23.5947 98.4344 22.368V17.264H99.5384V22.24C99.5384 23.1893 99.773 23.9147 100.242 24.416C100.722 24.9173 101.373 25.168 102.194 25.168C103.037 25.168 103.709 24.9013 104.21 24.368C104.712 23.8347 104.962 23.0507 104.962 22.016V17.264H106.082ZM109.759 14.16V26H108.639V14.16H109.759ZM119.496 17.264L114.312 30.112H113.144L114.84 25.952L111.256 17.264H112.488L115.464 24.72L118.344 17.264H119.496Z" fill="black"/>
<circle cx="20" cy="20" r="20" fill="#F0D800"/>
<path d="M9.50002 23.0001C9.22402 23.0001 9 22.776 9 22.5V17.5C9 17.224 9.22402 17 9.50002 17C9.77602 17 10 17.224 10 17.5V22.5C9.99998 22.776 9.77602 23.0001 9.50002 23.0001Z" fill="#F44336"/>
<path d="M12.5003 27C12.2243 27 12.0002 26.776 12.0002 26.5V13.5C12.0002 13.224 12.2243 13 12.5003 13C12.7763 13 13.0002 13.224 13.0002 13.5V26.5C13.0002 26.776 12.7763 27 12.5003 27Z" fill="#F44336"/>
<path d="M15.5 31C15.224 31 15 30.776 15 30.5V9.49997C15 9.22402 15.224 9 15.5 9C15.776 9 16 9.22402 16 9.50002V30.5C16 30.776 15.776 31 15.5 31Z" fill="#F44336"/>
<path d="M18.5003 30C18.2243 30 18.0002 29.776 18.0002 29.5V10.5C18.0002 10.224 18.2243 10 18.5003 10C18.7763 10 19.0002 10.224 19.0002 10.5V29.5C19.0002 29.776 18.7763 30 18.5003 30Z" fill="#F44336"/>
<path d="M21.5 26C21.224 26 21 25.776 21 25.5V14.5C21 14.224 21.224 13.9999 21.5 13.9999C21.776 13.9999 22 14.224 22 14.5V25.5C22 25.776 21.776 26 21.5 26Z" fill="#F44336"/>
<path d="M24.5 30C24.224 30 24 29.776 24 29.5V10.5C24 10.224 24.224 10 24.5 10C24.776 10 25 10.224 25 10.5V29.5C25 29.776 24.776 30 24.5 30Z" fill="#F44336"/>
<path d="M27.5003 26C27.2243 26 27.0002 25.776 27.0002 25.5V14.5C27.0002 14.224 27.2243 13.9999 27.5003 13.9999C27.7763 13.9999 28.0003 14.224 28.0003 14.5V25.5C28.0002 25.776 27.7763 26 27.5003 26Z" fill="#F44336"/>
<path d="M30.5 23.0001C30.224 23.0001 30 22.776 30 22.5V17.5C30 17.224 30.224 17 30.5 17C30.776 17 31 17.224 31 17.5V22.5C31 22.776 30.776 23.0001 30.5 23.0001Z" fill="#F44336"/>
<path d="M9.50002 23.0001C9.22402 23.0001 9 22.776 9 22.5V17.5C9 17.224 9.22402 17 9.50002 17C9.77602 17 10 17.224 10 17.5V22.5C9.99998 22.776 9.77602 23.0001 9.50002 23.0001Z" fill="black"/>
<path d="M12.5003 27C12.2243 27 12.0002 26.776 12.0002 26.5V13.5C12.0002 13.224 12.2243 13 12.5003 13C12.7763 13 13.0002 13.224 13.0002 13.5V26.5C13.0002 26.776 12.7763 27 12.5003 27Z" fill="black"/>
<path d="M15.5 31C15.224 31 15 30.776 15 30.5V9.49997C15 9.22402 15.224 9 15.5 9C15.776 9 16 9.22402 16 9.50002V30.5C16 30.776 15.776 31 15.5 31Z" fill="black"/>
<path d="M18.5003 30C18.2243 30 18.0002 29.776 18.0002 29.5V10.5C18.0002 10.224 18.2243 10 18.5003 10C18.7763 10 19.0002 10.224 19.0002 10.5V29.5C19.0002 29.776 18.7763 30 18.5003 30Z" fill="black"/>
<path d="M21.5 26C21.224 26 21 25.776 21 25.5V14.5C21 14.224 21.224 13.9999 21.5 13.9999C21.776 13.9999 22 14.224 22 14.5V25.5C22 25.776 21.776 26 21.5 26Z" fill="black"/>
<path d="M24.5 30C24.224 30 24 29.776 24 29.5V10.5C24 10.224 24.224 10 24.5 10C24.776 10 25 10.224 25 10.5V29.5C25 29.776 24.776 30 24.5 30Z" fill="black"/>
<path d="M27.5003 26C27.2243 26 27.0002 25.776 27.0002 25.5V14.5C27.0002 14.224 27.2243 13.9999 27.5003 13.9999C27.7763 13.9999 28.0003 14.224 28.0003 14.5V25.5C28.0002 25.776 27.7763 26 27.5003 26Z" fill="black"/>
<path d="M30.5 23.0001C30.224 23.0001 30 22.776 30 22.5V17.5C30 17.224 30.224 17 30.5 17C30.776 17 31 17.224 31 17.5V22.5C31 22.776 30.776 23.0001 30.5 23.0001Z" fill="black"/>
</svg>
